
<svg version="1.1" xmlns="http://www.w3.org/2000/svg" viewBox="0 0 160 160">
<style>text { font: 1px Helvetica; font-weight: 600; white-space: pre; dominant-baseline: central; } line { stroke-width: 1; fill: none; stroke-linecap: round; stroke-linejoin: round; } .c0 { stroke: #78bc27 } .c1 { stroke: #c38c31 } .c2 { stroke: #e3002d } .c3 { stroke: #0070bc } .c4 { stroke: #018659 } .c5 { stroke: #f8b51c } .c6 { stroke: #f4a5a8 } .c7 { stroke: #f5b8b0 } .c8 { stroke: #dae11f } .c9 { stroke: #ffe707 } .c10 { stroke: #d6cfba } .c11 { stroke: #cabfde }</style><defs><g id="wm-xf"><circle r="1.2" fill="#000"/><circle r="0.9" fill="#fff"/><circle r="0.6" fill="#000"/><circle r="0.3" fill="#fff"/></g><g id="wm"><circle r="0.6" fill="#000"/><circle r="0.3" fill="#fff"/></g><g id="csm-f8b51c"><circle r="0.4" fill="#f8b51c"/><circle r="0.2" fill="#fff"/></g><g id="csm-cabfde"><circle r="0.4" fill="#cabfde"/><circle r="0.2" fill="#fff"/></g><g id="csm-ffe707"><circle r="0.4" fill="#ffe707"/><circle r="0.2" fill="#fff"/></g><g id="csm-e3002d"><circle r="0.4" fill="#e3002d"/><circle r="0.2" fill="#fff"/></g><g id="csm-f5b8b0"><circle r="0.4" fill="#f5b8b0"/><circle r="0.2" fill="#fff"/></g><g id="csm-0070bc"><circle r="0.4" fill="#0070bc"/><circle r="0.2" fill="#fff"/></g><g id="csm-018659"><circle r="0.4" fill="#018659"/><circle r="0.2" fill="#fff"/></g><g id="csm-d6cfba"><circle r="0.4" fill="#d6cfba"/><circle r="0.2" fill="#fff"/></g><g id="csm-c38c31"><circle r="0.4" fill="#c38c31"/><circle r="0.2" fill="#fff"/></g><g id="csm-78bc27"><circle r="0.4" fill="#78bc27"/><circle r="0.2" fill="#fff"/></g></defs><line class="c0" x1="118" y1="131" x2="118" y2="140"/><line class="c1" x1="99" y1="80" x2="99" y2="96"/><line class="c1" x1="99" y1="112" x2="99" y2="115"/><line class="c1" x1="112" y1="129" x2="118" y2="129"/><line class="c1" x1="99" y1="98" x2="99" y2="102"/><line class="c1" x1="99" y1="81" x2="100" y2="80"/><line class="c1" x1="111" y1="128" x2="112" y2="129"/><line class="c1" x1="122" y1="80" x2="123" y2="81"/><line class="c1" x1="111" y1="117" x2="111" y2="128"/><line class="c1" x1="100" y1="116" x2="110" y2="116"/><line class="c1" x1="99" y1="115" x2="100" y2="116"/><line class="c1" x1="99" y1="104" x2="99" y2="110"/><line class="c1" x1="99" y1="80" x2="123" y2="80"/><line class="c1" x1="123" y1="80" x2="123" y2="91"/><line class="c1" x1="110" y1="116" x2="111" y2="117"/><line class="c2" x1="83" y1="90" x2="83" y2="96"/><line class="c2" x1="62" y1="62" x2="63" y2="63"/><line class="c2" x1="83" y1="64" x2="83" y2="88"/><line class="c2" x1="63" y1="63" x2="71" y2="63"/><line class="c2" x1="82" y1="63" x2="83" y2="64"/><line class="c2" x1="83" y1="110" x2="84" y2="111"/><line class="c2" x1="92" y1="111" x2="111" y2="111"/><line class="c2" x1="84" y1="111" x2="90" y2="111"/><line class="c2" x1="83" y1="98" x2="83" y2="102"/><line class="c2" x1="62" y1="48" x2="62" y2="62"/><line class="c2" x1="83" y1="104" x2="83" y2="110"/><line class="c2" x1="73" y1="63" x2="82" y2="63"/><line class="c3" x1="69" y1="115" x2="69" y2="140"/><line class="c3" x1="122" y1="103" x2="123" y2="102"/><line class="c3" x1="123" y1="92" x2="123" y2="102"/><line class="c3" x1="69" y1="103" x2="90" y2="103"/><line class="c3" x1="92" y1="103" x2="122" y2="103"/><line class="c3" x1="67" y1="105" x2="67" y2="113"/><line class="c3" x1="67" y1="113" x2="69" y2="115"/><line class="c3" x1="67" y1="105" x2="69" y2="103"/><line class="c4" x1="102" y1="135" x2="102" y2="142"/><line class="c4" x1="79" y1="110" x2="80" y2="111"/><line class="c4" x1="80" y1="97" x2="90" y2="97"/><line class="c4" x1="88" y1="116" x2="101" y2="129"/><line class="c4" x1="79" y1="111" x2="83" y2="111"/><line class="c4" x1="79" y1="104" x2="79" y2="111"/><line class="c4" x1="79" y1="98" x2="79" y2="102"/><line class="c4" x1="83" y1="111" x2="86" y2="114"/><line class="c4" x1="79" y1="98" x2="80" y2="97"/><line class="c4" x1="102" y1="131" x2="102" y2="133"/><line class="c4" x1="92" y1="97" x2="111" y2="97"/><line class="c5" x1="66" y1="71" x2="66" y2="81"/><line class="c5" x1="85" y1="117" x2="85" y2="127"/><line class="c5" x1="85" y1="129" x2="85" y2="132"/><line class="c5" x1="91" y1="90" x2="91" y2="111"/><line class="c5" x1="74" y1="89" x2="90" y2="89"/><line class="c5" x1="54" y1="109" x2="74" y2="89"/><line class="c5" x1="90" y1="89" x2="91" y2="90"/><line class="c5" x1="54" y1="109" x2="54" y2="121"/><line class="c5" x1="66" y1="81" x2="74" y2="89"/><line class="c5" x1="85" y1="117" x2="91" y2="111"/><line class="c6" x1="72" y1="59" x2="72" y2="63"/><line class="c7" x1="71" y1="44" x2="95" y2="44"/><line class="c7" x1="86" y1="52" x2="87" y2="51"/><line class="c7" x1="86" y1="44" x2="87" y2="45"/><line class="c7" x1="87" y1="44" x2="87" y2="51"/><line class="c7" x1="87" y1="45" x2="88" y2="44"/><line class="c7" x1="63" y1="52" x2="86" y2="52"/><line class="c8" x1="98" y1="134" x2="102" y2="134"/><line class="c9" x1="81" y1="128" x2="91" y2="128"/><line class="c9" x1="55" y1="102" x2="57" y2="104"/><line class="c9" x1="95" y1="130" x2="97" y2="130"/><line class="c9" x1="59" y1="106" x2="68" y2="115"/><line class="c9" x1="94" y1="129" x2="95" y2="130"/><line class="c9" x1="70" y1="117" x2="81" y2="128"/><line class="c9" x1="91" y1="128" x2="92" y2="129"/><line class="c9" x1="55" y1="99" x2="55" y2="102"/><line class="c9" x1="92" y1="129" x2="94" y2="129"/><line class="c9" x1="99" y1="130" x2="102" y2="130"/><line class="c10" x1="88" y1="145" x2="93" y2="140"/><line class="c10" x1="76" y1="145" x2="88" y2="145"/><line class="c10" x1="93" y1="131" x2="97" y2="131"/><line class="c10" x1="93" y1="132" x2="94" y2="131"/><line class="c10" x1="93" y1="131" x2="93" y2="140"/><line class="c10" x1="97" y1="131" x2="98" y2="130"/><line class="c11" x1="55" y1="41" x2="55" y2="98"/><line class="c11" x1="55" y1="97" x2="56" y2="98"/><line class="c11" x1="66" y1="98" x2="78" y2="98"/><line class="c11" x1="55" y1="98" x2="64" y2="98"/><line class="c11" x1="80" y1="98" x2="81" y2="99"/>

<use x="54" y="109" href="#csm-f8b51c"/><text x="53.25" y="109" text-anchor="end">Xinzhuang</text><use x="54" y="113" href="#csm-f8b51c"/><text x="53.25" y="113" text-anchor="end">Fu Jen University</text><use x="54" y="117" href="#csm-f8b51c"/><text x="53.25" y="117" text-anchor="end">Danfeng</text><use x="54" y="121" href="#wm"/><text x="53.25" y="121" text-anchor="end">Huilong</text><use x="55" y="41" href="#wm"/><text x="54.25" y="41" text-anchor="end">Laojie River</text><use x="55" y="44" href="#csm-cabfde"/><text x="54.25" y="44" text-anchor="end">Huanbei</text><use x="55" y="47" href="#csm-cabfde"/><text x="54.25" y="47" text-anchor="end">Xingnan</text><use x="55" y="50" href="#csm-cabfde"/><text x="54.25" y="50" text-anchor="end">Taoyuan Sports Park</text><use x="55" y="53" href="#csm-cabfde"/><text x="54.25" y="53" text-anchor="end">Taoyuan HSR Station</text><use x="55" y="56" href="#csm-cabfde"/><text x="54.25" y="56" text-anchor="end">Linghang</text><use x="55" y="59" href="#csm-cabfde"/><text x="54.25" y="59" text-anchor="end">Hengshan</text><use x="55" y="62" href="#csm-cabfde"/><text x="54.25" y="62" text-anchor="end">Dayuan</text><use x="55" y="65" href="#csm-cabfde"/><text x="54.25" y="65" text-anchor="end">Airport Hotel</text><use x="55" y="68" href="#csm-cabfde"/><text x="54.25" y="68" text-anchor="end">Airport Terminal 2</text><use x="55" y="71" href="#csm-cabfde"/><text x="54.25" y="71" text-anchor="end">Airport Terminal 1</text><use x="55" y="74" href="#csm-cabfde"/><text x="54.25" y="74" text-anchor="end">Kengkou</text><use x="55" y="77" href="#csm-cabfde"/><text x="54.25" y="77" text-anchor="end">Shanbi</text><use x="55" y="80" href="#csm-cabfde"/><text x="54.25" y="80" text-anchor="end">Linkou</text><use x="55" y="83" href="#csm-cabfde"/><text x="54.25" y="83" text-anchor="end">Chang Gung Memorial Hospital</text><use x="55" y="86" href="#csm-cabfde"/><text x="54.25" y="86" text-anchor="end">National Taiwan Sport University</text><use x="55" y="89" href="#csm-cabfde"/><text x="54.25" y="89" text-anchor="end">Taishan Guihe</text><use x="55" y="92" href="#csm-cabfde"/><text x="54.25" y="92" text-anchor="end">Taishan</text><use x="55" y="95" href="#csm-cabfde"/><text x="54.25" y="95" text-anchor="end">Xinzhuang Fuduxin</text><use x="55" y="98" href="#wm-xf"/><text x="53.5" y="98" text-anchor="end">New Taipei Industrial Park</text><use x="55" y="102" href="#csm-ffe707"/><text x="54.25" y="102" text-anchor="end">Xingfu</text><use x="58" y="105" href="#wm-xf"/><text x="56.5" y="105" text-anchor="end">Touqianzhuang</text><use x="62" y="48" href="#wm"/><text x="61.25" y="48" text-anchor="end">Tamsui</text><use x="62" y="52" href="#wm-xf"/><text x="60.5" y="52" text-anchor="end">Hongshulin</text><use x="62" y="56" href="#csm-e3002d"/><text x="61.25" y="56" text-anchor="end">Zhuwei</text><use x="62" y="60" href="#csm-e3002d"/><text x="61.25" y="60" text-anchor="end">Guandu</text><use x="62" y="101" href="#csm-f8b51c"/><text x="61.25" y="101" text-anchor="end">Xianse Temple</text><use x="64" y="63" href="#csm-e3002d"/><text x="63.25" y="63" text-anchor="end" transform="rotate(-90 64, 63)">Zhongyi</text><use x="65" y="98" href="#wm-xf"/><text x="63.5" y="98" text-anchor="end" transform="rotate(-90 65, 98)">Sanchong</text><use x="66" y="52" href="#csm-f5b8b0"/><text x="65.25" y="52" text-anchor="end" transform="rotate(-90 66, 52)">Ganzhenlin</text><use x="66" y="71" href="#wm"/><text x="65.25" y="71" text-anchor="end">Luzhou</text><use x="66" y="75" href="#csm-f8b51c"/><text x="66.75" y="75" transform="rotate(-45 66, 75)">Sanmin Senior High School</text><use x="66" y="79" href="#csm-f8b51c"/><text x="66.75" y="79" transform="rotate(-45 66, 79)">St. Ignatius High School</text><use x="66" y="113" href="#wm-xf"/><text x="64.5" y="113" text-anchor="end" transform="rotate(-45 66, 113)">Xinpu Minsheng</text><use x="67" y="109" href="#csm-0070bc"/><text x="66.25" y="109" text-anchor="end">Jiangzicui</text><use x="67" y="113" href="#wm-xf"/><text x="68.5" y="113">Xinpu</text><use x="68" y="63" href="#csm-e3002d"/><text x="67.25" y="63" text-anchor="end" transform="rotate(-90 68, 63)">Fuxingguang</text><use x="68" y="83" href="#csm-f8b51c"/><text x="68.75" y="83" transform="rotate(-45 68, 83)">Sanhe Junior High School</text><use x="68" y="95" href="#csm-f8b51c"/><text x="67.25" y="95" text-anchor="end">Cailiao</text><use x="69" y="116" href="#wm-xf"/><text x="67.5" y="116" text-anchor="end" transform="rotate(-45 69, 116)">Banqiao</text><use x="69" y="120" href="#csm-0070bc"/><text x="68.25" y="120" text-anchor="end" transform="rotate(-45 69, 120)">Fuzhong</text><use x="69" y="124" href="#csm-0070bc"/><text x="68.25" y="124" text-anchor="end" transform="rotate(-45 69, 124)">Far Eastern Hospital</text><use x="69" y="128" href="#csm-0070bc"/><text x="68.25" y="128" text-anchor="end" transform="rotate(-45 69, 128)">Haishan</text><use x="69" y="132" href="#csm-0070bc"/><text x="68.25" y="132" text-anchor="end" transform="rotate(-45 69, 132)">Tucheng</text><use x="69" y="136" href="#csm-0070bc"/><text x="68.25" y="136" text-anchor="end" transform="rotate(-45 69, 136)">Yongning</text><use x="69" y="140" href="#wm"/><text x="68.25" y="140" text-anchor="end" transform="rotate(-45 69, 140)">Dingpu</text><use x="70" y="52" href="#csm-f5b8b0"/><text x="69.25" y="52" text-anchor="end" transform="rotate(-90 70, 52)">Danjin Denggong</text><use x="71" y="44" href="#wm"/><text x="70.25" y="44" text-anchor="end" transform="rotate(45 71, 44)">Tamsui Fishermans Wharf</text><use x="71" y="86" href="#csm-f8b51c"/><text x="70.25" y="86" text-anchor="end">Sanchong Elementary School</text><use x="71" y="92" href="#csm-f8b51c"/><text x="70.25" y="92" text-anchor="end">Taipei Bridge</text><use x="71" y="103" href="#csm-0070bc"/><text x="70.25" y="103" text-anchor="end" transform="rotate(-90 71, 103)">Longshan Temple</text><use x="72" y="59" href="#wm"/><text x="72.75" y="59">Xinbeitou</text><use x="72" y="63" href="#wm-xf"/><text x="70.5" y="63" text-anchor="end" transform="rotate(-90 72, 63)">Beitou</text><use x="72" y="119" href="#csm-ffe707"/><text x="71.25" y="119" text-anchor="end" transform="rotate(-45 72, 119)">Banxin</text><use x="74" y="52" href="#csm-f5b8b0"/><text x="74.75" y="52" transform="rotate(45 74, 52)">Tamkang University</text><use x="75" y="44" href="#csm-f5b8b0"/><text x="74.25" y="44" text-anchor="end" transform="rotate(45 75, 44)">Shalun</text><use x="75" y="122" href="#csm-ffe707"/><text x="74.25" y="122" text-anchor="end" transform="rotate(-45 75, 122)">Zhongyuan</text><use x="76" y="63" href="#csm-e3002d"/><text x="76.75" y="63" transform="rotate(-45 76, 63)">Qiyan</text><use x="76" y="145" href="#wm"/><text x="76.75" y="145" transform="rotate(45 76, 145)">Shuangcheng</text><use x="78" y="52" href="#csm-f5b8b0"/><text x="78.75" y="52" transform="rotate(45 78, 52)">Danjin Beixin</text><use x="78" y="89" href="#wm-xf"/><text x="76.5" y="89" text-anchor="end" transform="rotate(-45 78, 89)">Daqiaotou</text><use x="78" y="125" href="#csm-ffe707"/><text x="77.25" y="125" text-anchor="end" transform="rotate(-45 78, 125)">Qiaohe</text><use x="79" y="44" href="#csm-f5b8b0"/><text x="78.25" y="44" text-anchor="end" transform="rotate(45 79, 44)">Taipei University of Marine Technology</text><use x="79" y="99" href="#csm-018659"/><text x="78.25" y="99" text-anchor="end">Beimen</text><use x="79" y="103" href="#wm-xf"/><text x="77.5" y="103" text-anchor="end" transform="rotate(-45 79, 103)">Ximen</text><use x="79" y="111" href="#csm-018659"/><text x="78.25" y="111" text-anchor="end" transform="rotate(-45 79, 111)">Xiaonanmen</text><use x="80" y="63" href="#csm-e3002d"/><text x="80.75" y="63" transform="rotate(-45 80, 63)">Qilian</text><use x="80" y="145" href="#csm-d6cfba"/><text x="80.75" y="145" transform="rotate(45 80, 145)">Rose China Town</text><use x="81" y="99" href="#wm"/><text x="80.25" y="99" text-anchor="end" transform="rotate(-90 81, 99)">Taipei Main Station</text><use x="81" y="128" href="#csm-ffe707"/><text x="80.25" y="128" text-anchor="end" transform="rotate(-45 81, 128)">Zhonghe</text><use x="82" y="52" href="#csm-f5b8b0"/><text x="82.75" y="52" transform="rotate(45 82, 52)">Xinshi 1st Rd.</text><use x="83" y="65" href="#csm-e3002d"/><text x="83.75" y="65">Shipai</text><use x="83" y="69" href="#csm-e3002d"/><text x="82.25" y="69" text-anchor="end">Mingde</text><use x="83" y="73" href="#csm-e3002d"/><text x="82.25" y="73" text-anchor="end">Zhishan</text><use x="83" y="77" href="#csm-e3002d"/><text x="82.25" y="77" text-anchor="end">Shilin</text><use x="83" y="81" href="#csm-e3002d"/><text x="82.25" y="81" text-anchor="end">Jiantan</text><use x="83" y="85" href="#csm-e3002d"/><text x="82.25" y="85" text-anchor="end">Yuanshan</text><use x="83" y="89" href="#wm-xf"/><text x="81.5" y="89" text-anchor="end" transform="rotate(-45 83, 89)">Minquan W. Road</text><use x="83" y="93" href="#csm-e3002d"/><text x="82.25" y="93" text-anchor="end" transform="rotate(-45 83, 93)">Shuanglian</text><use x="83" y="97" href="#wm-xf"/><text x="84.5" y="97" transform="rotate(-45 83, 97)">Zhongshan</text><use x="83" y="103" href="#wm-xf"/><text x="84.5" y="103" transform="rotate(-45 83, 103)">Taipei Main Station</text><use x="83" y="107" href="#csm-e3002d"/><text x="83.75" y="107">NTU Hospital</text><use x="83" y="111" href="#wm-xf"/><text x="81.5" y="111" text-anchor="end" transform="rotate(-45 83, 111)">Chiang Kai-shek Memorial Hall</text><use x="84" y="145" href="#csm-d6cfba"/><text x="84.75" y="145" transform="rotate(45 84, 145)">Taipei Xiaocheng</text><use x="85" y="120" href="#csm-f8b51c"/><text x="84.25" y="120" text-anchor="end" transform="rotate(-45 85, 120)">DIngxi</text><use x="85" y="124" href="#csm-f8b51c"/><text x="85.75" y="124" transform="rotate(-45 85, 124)">Yongan Market</text><use x="85" y="128" href="#wm-xf"/><text x="83.5" y="128" text-anchor="end" transform="rotate(-45 85, 128)">Jingan</text><use x="85" y="132" href="#wm"/><text x="84.25" y="132" text-anchor="end" transform="rotate(-45 85, 132)">Nanshijiao</text><use x="86" y="52" href="#csm-f5b8b0"/><text x="86.75" y="52" transform="rotate(45 86, 52)">Tamsui District Office</text><rect x="86.5" y="43.5" width="1" height="1" fill="#fff" stroke="#000" stroke-width="0.2" rx="0.125"/><text x="88.5" y="44" transform="rotate(45 87, 44)">Binhai Shalun</text><use x="87" y="48" href="#csm-f5b8b0"/><text x="86.25" y="48" text-anchor="end">Binhai Yishan</text><use x="87" y="115" href="#wm-xf"/><text x="85.5" y="115" text-anchor="end" transform="rotate(-45 87, 115)">Guting</text><use x="88" y="145" href="#csm-d6cfba"/><text x="88.75" y="145" transform="rotate(45 88, 145)">Cardinal Tien Hospital An Kang Branch</text><use x="89" y="89" href="#csm-f8b51c"/><text x="89.75" y="89" transform="rotate(-90 89, 89)">Zhongshan Elementary School</text><use x="89" y="128" href="#csm-ffe707"/><text x="89.75" y="128" transform="rotate(-45 89, 128)">Jingping</text><use x="90" y="118" href="#csm-018659"/><text x="89.25" y="118" text-anchor="end" transform="rotate(-45 90, 118)">Taipower Building</text><use x="91" y="44" href="#csm-f5b8b0"/><text x="91.75" y="44" transform="rotate(45 91, 44)">Danhai New Town</text><use x="91" y="92" href="#csm-f8b51c"/><text x="91.75" y="92" transform="rotate(-45 91, 92)">Xingtian Temple</text><use x="91" y="97" href="#wm-xf"/><text x="92.5" y="97" transform="rotate(-45 91, 97)">Songjiang Nanjing</text><use x="91" y="103" href="#wm-xf"/><text x="92.5" y="103" transform="rotate(-45 91, 103)">Zhongxiao Xinsheng</text><use x="91" y="111" href="#wm-xf"/><text x="92.5" y="111" transform="rotate(45 91, 111)">Dongmen</text><use x="91" y="142" href="#csm-d6cfba"/><text x="91.75" y="142" transform="rotate(45 91, 142)">Jinwen University of Science and Technology</text><use x="93" y="121" href="#csm-018659"/><text x="92.25" y="121" text-anchor="end" transform="rotate(-45 93, 121)">Gongguan</text><use x="93" y="129" href="#csm-ffe707"/><text x="92.25" y="129" text-anchor="end" transform="rotate(-45 93, 129)">Xiulang Bridge</text><use x="93" y="131" href="#csm-d6cfba"/><text x="92.25" y="131" text-anchor="end" transform="rotate(-45 93, 131)">Xinhe Elementary School</text><use x="93" y="135" href="#csm-d6cfba"/><text x="92.25" y="135" text-anchor="end" transform="rotate(-45 93, 135)">Sunshine Sports Park</text><use x="93" y="139" href="#csm-d6cfba"/><text x="93.75" y="139">Ankang</text><use x="95" y="44" href="#wm"/><text x="95.75" y="44" transform="rotate(45 95, 44)">Kanding</text><use x="95" y="111" href="#csm-e3002d"/><text x="95.75" y="111" transform="rotate(-90 95, 111)">Daan Park</text><use x="96" y="124" href="#csm-018659"/><text x="95.25" y="124" text-anchor="end" transform="rotate(-45 96, 124)">Wanlong</text><use x="98" y="130" href="#wm-xf"/><text x="96.5" y="130" text-anchor="end" transform="rotate(-45 98, 130)">Shisizhang</text><use x="98" y="134" href="#wm"/><text x="97.25" y="134" text-anchor="end" transform="rotate(-45 98, 134)">Xiaobitan</text><use x="99" y="80" href="#csm-c38c31"/><text x="99.75" y="80" transform="rotate(-45 99, 80)">Jiannan Rd.</text><use x="99" y="84" href="#csm-c38c31"/><text x="98.25" y="84" text-anchor="end">Dazhi</text><use x="99" y="88" href="#csm-c38c31"/><text x="99.75" y="88" transform="rotate(-45 99, 88)">Songshan Airport</text><use x="99" y="92" href="#csm-c38c31"/><text x="99.75" y="92" transform="rotate(-45 99, 92)">Zhongshan Junior High School</text><use x="99" y="97" href="#wm-xf"/><text x="100.5" y="97" transform="rotate(-45 99, 97)">Nanjing Fuxing</text><use x="99" y="103" href="#wm-xf"/><text x="100.5" y="103" transform="rotate(-45 99, 103)">Zhongxiao Fuxing</text><use x="99" y="111" href="#wm-xf"/><text x="100.5" y="111" transform="rotate(-45 99, 111)">Daan</text><use x="99" y="115" href="#csm-c38c31"/><text x="98.25" y="115" text-anchor="end" transform="rotate(-90 99, 115)">Technology Building</text><use x="99" y="127" href="#csm-018659"/><text x="98.25" y="127" text-anchor="end">Jingmei</text><use x="102" y="130" href="#wm-xf"/><text x="103.5" y="130" transform="rotate(-90 102, 130)">Dapinglin</text><use x="102" y="134" href="#wm-xf"/><text x="103.5" y="134" transform="rotate(45 102, 134)">Qizhang</text><use x="102" y="138" href="#csm-018659"/><text x="102.75" y="138" transform="rotate(45 102, 138)">Xindian District Office</text><use x="102" y="142" href="#wm"/><text x="102.75" y="142" transform="rotate(45 102, 142)">Xindian</text><use x="103" y="80" href="#csm-c38c31"/><text x="103.75" y="80" transform="rotate(-90 103, 80)">Xihu</text><use x="103" y="97" href="#csm-018659"/><text x="103.75" y="97" transform="rotate(-45 103, 97)">Taipei Arena</text><use x="103" y="103" href="#csm-0070bc"/><text x="103.75" y="103" transform="rotate(45 103, 103)">Zhongxiao Dunhua</text><use x="103" y="111" href="#csm-e3002d"/><text x="103.75" y="111" transform="rotate(45 103, 111)">Xinyi Anhe</text><use x="103" y="116" href="#csm-c38c31"/><text x="102.25" y="116" text-anchor="end" transform="rotate(-90 103, 116)">Liuzhangli</text><use x="107" y="80" href="#csm-c38c31"/><text x="107.75" y="80" transform="rotate(-90 107, 80)">Gangqian</text><use x="107" y="97" href="#csm-018659"/><text x="107.75" y="97" transform="rotate(-45 107, 97)">Nanjing Sanmin</text><use x="107" y="103" href="#csm-0070bc"/><text x="107.75" y="103" transform="rotate(45 107, 103)">Sun Yat-Sen Memorial Hall</text><use x="107" y="111" href="#csm-e3002d"/><text x="107.75" y="111" transform="rotate(45 107, 111)">Taipei 101 World Trade Center</text><use x="107" y="116" href="#csm-c38c31"/><text x="106.25" y="116" text-anchor="end" transform="rotate(-90 107, 116)">Linguang</text><use x="111" y="80" href="#csm-c38c31"/><text x="111.75" y="80" transform="rotate(-90 111, 80)">Wende</text><use x="111" y="97" href="#wm"/><text x="111.75" y="97">Songshan</text><use x="111" y="103" href="#csm-0070bc"/><text x="111.75" y="103" transform="rotate(45 111, 103)">Taipei City Hall</text><use x="111" y="111" href="#wm"/><text x="111.75" y="111" transform="rotate(45 111, 111)">Xiangshan</text><use x="111" y="118" href="#csm-c38c31"/><text x="110.25" y="118" text-anchor="end" transform="rotate(-45 111, 118)">Xinhai</text><use x="111" y="122" href="#csm-c38c31"/><text x="110.25" y="122" text-anchor="end" transform="rotate(-45 111, 122)">Wanfang Hospital</text><use x="111" y="126" href="#csm-c38c31"/><text x="110.25" y="126" text-anchor="end" transform="rotate(-45 111, 126)">Wanfang Community</text><use x="114" y="129" href="#csm-c38c31"/><text x="114.75" y="129" transform="rotate(-90 114, 129)">Muzha</text><use x="115" y="80" href="#csm-c38c31"/><text x="115.75" y="80" transform="rotate(-90 115, 80)">Neihu</text><use x="115" y="103" href="#csm-0070bc"/><text x="115.75" y="103" transform="rotate(45 115, 103)">Yongchun</text><use x="118" y="129" href="#wm"/><text x="118.75" y="129" transform="rotate(-90 118, 129)">Taipei Zoo</text><use x="118" y="131" href="#wm"/><text x="117.25" y="131" text-anchor="end" transform="rotate(-45 118, 131)">Taipei Zoo Station</text><use x="118" y="134" href="#csm-78bc27"/><text x="117.25" y="134" text-anchor="end" transform="rotate(-45 118, 134)">Taipei Zoo South Station</text><use x="118" y="137" href="#csm-78bc27"/><text x="117.25" y="137" text-anchor="end" transform="rotate(-45 118, 137)">Zhinan Temple Station</text><use x="118" y="140" href="#wm"/><text x="117.25" y="140" text-anchor="end" transform="rotate(-45 118, 140)">Maokong Zoo Station</text><use x="119" y="80" href="#csm-c38c31"/><text x="119.75" y="80" transform="rotate(-90 119, 80)">Dahu Park</text><use x="119" y="103" href="#csm-0070bc"/><text x="119.75" y="103" transform="rotate(45 119, 103)">Houshanpi</text><use x="123" y="80" href="#csm-c38c31"/><text x="123.75" y="80" transform="rotate(-45 123, 80)">Huzhou</text><use x="123" y="84" href="#csm-c38c31"/><text x="123.75" y="84">Donghu</text><use x="123" y="88" href="#csm-c38c31"/><text x="123.75" y="88">Nangang Software Park</text><use x="123" y="92" href="#wm-xf"/><text x="124.5" y="92">Taipei Nangang Exhibition Center</text><use x="123" y="96" href="#csm-0070bc"/><text x="123.75" y="96">Nangang</text><use x="123" y="100" href="#csm-0070bc"/><text x="123.75" y="100">Kunyang</text>
</svg>

